<svg width="32.000000" height="32.000000" viewBox="0 0 32 32" fill="none" xmlns="http://www.w3.org/2000/svg" xmlns:xlink="http://www.w3.org/1999/xlink">
	<desc>
			Created with Pixso.
	</desc>
	<defs>
		<clipPath id="clip3_172">
			<rect rx="0.000000" width="21.000000" height="21.000000" transform="translate(5.500000 5.500000)" fill="white" fill-opacity="0"/>
		</clipPath>
	</defs>
	<rect rx="0.000000" width="21.000000" height="21.000000" transform="translate(5.500000 5.500000)" fill="#000000" fill-opacity="0"/>
	<g clip-path="url(#clip3_172)">
		<path d="M21.11 17.37L21.73 13.39L17.91 13.39L17.91 10.8C17.91 9.72 18.44 8.65 20.15 8.65L21.89 8.65L21.89 5.26C21.89 5.26 20.31 5 18.8 5C15.66 5 13.6 6.9 13.6 10.35L13.6 13.39L10.1 13.39L10.1 17.37L13.6 17.37L13.6 27L17.91 27L17.91 17.37L21.11 17.37Z" fill="#FFFFFF" fill-opacity="1.000000" fill-rule="nonzero"/>
	</g>
	<rect width="32.000000" height="32.000000" fill="#D9D9D9" fill-opacity="0"/>
	<rect x="0.500000" y="0.500000" width="31.000000" height="31.000000" stroke="#F5F5F7" stroke-opacity="1.000000" stroke-width="1.000000"/>
</svg>
