<svg width="32.000000" height="32.000000" viewBox="0 0 32 32" fill="none" xmlns="http://www.w3.org/2000/svg" xmlns:xlink="http://www.w3.org/1999/xlink">
	<desc>
			Created with Pixso.
	</desc>
	<defs>
		<clipPath id="clip3_175">
			<rect rx="0.000000" width="21.000000" height="21.000000" transform="translate(5.500000 5.500000)" fill="white" fill-opacity="0"/>
		</clipPath>
	</defs>
	<rect rx="0.000000" width="21.000000" height="21.000000" transform="translate(5.500000 5.500000)" fill="#000000" fill-opacity="0"/>
	<g clip-path="url(#clip3_175)">
		<path d="M25.56 9.23L22.66 22.93C22.44 23.9 21.87 24.14 21.06 23.68L16.63 20.42L14.5 22.47C14.26 22.71 14.06 22.91 13.61 22.91L13.92 18.4L22.13 10.99C22.48 10.67 22.05 10.5 21.57 10.81L11.43 17.2L7.07 15.83C6.12 15.54 6.1 14.88 7.26 14.43L24.34 7.85C25.13 7.55 25.82 8.02 25.56 9.23Z" fill="#FFFFFF" fill-opacity="1.000000" fill-rule="nonzero"/>
	</g>
	<rect width="32.000000" height="32.000000" fill="#D9D9D9" fill-opacity="0"/>
	<rect x="0.500000" y="0.500000" width="31.000000" height="31.000000" stroke="#F5F5F7" stroke-opacity="1.000000" stroke-width="1.000000"/>
</svg>
