<svg width="32.000000" height="32.000000" viewBox="0 0 32 32" fill="none" xmlns="http://www.w3.org/2000/svg" xmlns:xlink="http://www.w3.org/1999/xlink">
	<desc>
			Created with Pixso.
	</desc>
	<defs>
		<clipPath id="clip3_179">
			<rect rx="0.000000" width="21.000000" height="21.000000" transform="translate(5.500000 5.500000)" fill="white" fill-opacity="0"/>
		</clipPath>
	</defs>
	<rect width="32.000000" height="32.000000" fill="#D9D9D9" fill-opacity="0"/>
	<rect x="0.500000" y="0.500000" width="31.000000" height="31.000000" stroke="#F5F5F7" stroke-opacity="1.000000" stroke-width="1.000000"/>
	<rect rx="0.000000" width="21.000000" height="21.000000" transform="translate(5.500000 5.500000)" fill="#000000" fill-opacity="0"/>
	<g clip-path="url(#clip3_179)">
		<path d="M22.74 9.17C20.94 7.36 18.54 6.37 15.99 6.37C10.73 6.37 6.45 10.65 6.45 15.91C6.45 17.59 6.89 19.23 7.72 20.68L6.37 25.62L11.43 24.29C12.82 25.05 14.39 25.45 15.99 25.45L15.99 25.45C21.25 25.45 25.62 21.17 25.62 15.91C25.62 13.37 24.54 10.97 22.74 9.17ZM15.99 23.85C14.56 23.85 13.17 23.46 11.95 22.74L11.66 22.57L8.66 23.36L9.46 20.43L9.27 20.13C8.48 18.87 8.06 17.41 8.06 15.91C8.06 11.54 11.62 7.98 16 7.98C18.11 7.98 20.1 8.81 21.6 10.31C23.09 11.81 24.01 13.79 24.01 15.91C24.01 20.29 20.36 23.85 15.99 23.85ZM20.34 17.91C20.1 17.79 18.93 17.21 18.71 17.13C18.49 17.05 18.33 17.01 18.17 17.25C18.01 17.49 17.56 18.03 17.42 18.19C17.28 18.35 17.14 18.37 16.9 18.25C15.5 17.55 14.58 17 13.66 15.41C13.41 14.99 13.9 15.02 14.36 14.11C14.44 13.95 14.4 13.82 14.34 13.7C14.28 13.58 13.8 12.4 13.6 11.93C13.41 11.46 13.21 11.53 13.06 11.52C12.93 11.51 12.77 11.51 12.61 11.51C12.45 11.51 12.19 11.57 11.97 11.81C11.75 12.05 11.14 12.62 11.14 13.79C11.14 14.97 11.99 16.1 12.11 16.26C12.23 16.42 13.79 18.83 16.18 19.86C17.7 20.52 18.29 20.57 19.05 20.46C19.51 20.39 20.46 19.88 20.65 19.33C20.85 18.77 20.85 18.29 20.79 18.19C20.73 18.08 20.58 18.02 20.34 17.91Z" fill="#FFFFFF" fill-opacity="1.000000" fill-rule="nonzero"/>
	</g>
</svg>
