<svg width="15.000000" height="15.000000" viewBox="0 0 15 15" fill="none" xmlns="http://www.w3.org/2000/svg" xmlns:xlink="http://www.w3.org/1999/xlink">
	<desc>
			Created with Pixso.
	</desc>
	<defs>
		<clipPath id="clip3_117">
			<rect rx="0.000000" width="14.000000" height="14.000000" transform="translate(0.500000 0.500000)" fill="white" fill-opacity="0"/>
		</clipPath>
	</defs>
	<rect rx="0.000000" width="14.000000" height="14.000000" transform="translate(0.500000 0.500000)" fill="#FFFFFF" fill-opacity="0"/>
	<g clip-path="url(#clip3_117)">
		<path d="M5.06 1.63C4.49 1.78 4.04 2.3 4.04 2.82C4.04 2.91 3.9 2.92 2.65 2.94C1.31 2.95 1.24 2.96 0.98 3.09C0.65 3.26 0.34 3.57 0.16 3.92L0.02 4.18L0.02 8.17L0.02 12.15L0.16 12.42C0.35 12.79 0.66 13.09 1.01 13.25L1.31 13.38L7.5 13.38L13.68 13.38L13.98 13.24C14.37 13.07 14.71 12.7 14.87 12.28C15 11.95 15 11.88 15 8.17C15 4.99 14.98 4.37 14.91 4.11C14.8 3.74 14.41 3.3 14.02 3.1C13.75 2.96 13.69 2.95 12.35 2.94L10.96 2.91L10.92 2.7C10.84 2.27 10.61 1.94 10.22 1.74C9.99 1.61 9.92 1.61 7.61 1.59C6.31 1.59 5.16 1.61 5.06 1.63ZM9.99 2.47C10.13 2.6 10.16 2.67 10.18 3.07C10.21 3.42 10.25 3.54 10.34 3.6C10.42 3.67 10.76 3.69 11.97 3.69C13.37 3.69 13.51 3.7 13.74 3.8C13.89 3.88 14.02 4 14.1 4.15L14.23 4.38L14.22 8.22C14.2 11.99 14.2 12.06 14.08 12.22C14.02 12.31 13.89 12.43 13.8 12.5C13.64 12.62 13.61 12.62 7.5 12.62C1.38 12.62 1.35 12.62 1.19 12.5C1.1 12.43 0.97 12.31 0.91 12.22C0.79 12.06 0.79 12.01 0.79 8.17C0.79 4.33 0.79 4.28 0.91 4.12C1.21 3.72 1.18 3.72 3 3.69C4.86 3.65 4.8 3.67 4.8 3.15C4.8 2.81 4.88 2.57 5.05 2.44C5.17 2.35 5.39 2.34 7.51 2.34L9.83 2.34L9.99 2.47Z" fill="#000000" fill-opacity="1.000000" fill-rule="nonzero"/>
		<path d="M12.38 4.69C12.12 4.76 11.89 5.05 11.89 5.3C11.89 5.85 12.41 6.19 12.89 5.94C13.13 5.81 13.24 5.63 13.24 5.32C13.24 4.85 12.84 4.57 12.38 4.69Z" fill="#000000" fill-opacity="1.000000" fill-rule="nonzero"/>
		<path d="M6.62 4.77C5.29 5.15 4.35 6.15 4.06 7.5C3.71 9.15 4.76 10.98 6.38 11.49C6.91 11.66 7.76 11.7 8.28 11.57C9.62 11.26 10.64 10.21 10.92 8.86C11.09 8.08 10.99 7.36 10.61 6.58C10.22 5.8 9.48 5.15 8.65 4.86C8.17 4.68 7.09 4.64 6.62 4.77ZM8.37 5.6C9.66 6.03 10.47 7.44 10.17 8.74C9.74 10.59 7.72 11.46 6.09 10.51C4.04 9.31 4.5 6.17 6.79 5.54C7.25 5.42 7.89 5.44 8.37 5.6Z" fill="#000000" fill-opacity="1.000000" fill-rule="nonzero"/>
	</g>
</svg>
