<svg width="14.980831" height="14.909180" viewBox="0 0 14.9808 14.9092" fill="none" xmlns="http://www.w3.org/2000/svg" xmlns:xlink="http://www.w3.org/1999/xlink">
	<desc>
			Created with Pixso.
	</desc>
	<defs/>
	<path id="Vector" d="M12.44 0.05C12.21 0.11 12.11 0.16 11.9 0.3C11.78 0.38 5.1 7.02 4.99 7.18C4.93 7.26 4.02 10.46 4.02 10.6C4.02 10.76 4.21 10.95 4.38 10.95C4.51 10.95 7.71 10.05 7.8 9.99C7.84 9.96 9.39 8.42 11.24 6.57C13.69 4.11 14.63 3.15 14.71 3.01C14.93 2.67 15.02 2.22 14.95 1.82C14.93 1.71 14.87 1.51 14.8 1.37C14.69 1.15 14.64 1.08 14.27 0.71C13.89 0.34 13.83 0.28 13.6 0.18C13.21 -0.01 12.84 -0.05 12.44 0.05ZM13.29 0.85C13.45 0.93 14.05 1.53 14.13 1.69C14.19 1.8 14.2 1.87 14.2 2.1C14.2 2.46 14.15 2.57 13.82 2.92L13.58 3.17L12.69 2.29L11.8 1.4L12.06 1.15C12.2 1.02 12.38 0.88 12.45 0.84C12.7 0.72 13.04 0.72 13.29 0.85ZM12.17 2.82L13.03 3.69L10.3 6.42L7.57 9.15L6.7 8.29C6.23 7.81 5.84 7.41 5.84 7.39C5.84 7.35 11.24 1.96 11.27 1.96C11.29 1.96 11.69 2.35 12.17 2.82ZM6.83 9.51C6.72 9.55 4.95 10.04 4.94 10.03C4.94 10.03 5.03 9.7 5.14 9.3C5.25 8.89 5.37 8.46 5.41 8.33L5.47 8.1L6.16 8.8C6.55 9.19 6.85 9.51 6.83 9.51Z" fill="#000000" fill-opacity="1.000000" fill-rule="nonzero"/>
	<path id="Vector" d="M1.39 1.51C0.77 1.67 0.3 2.11 0.09 2.72L0 2.97L0 8.17C0 13.13 0 13.38 0.05 13.54C0.16 13.89 0.27 14.09 0.54 14.35C0.72 14.54 0.84 14.63 1 14.71C1.42 14.92 1.01 14.91 7.19 14.9L12.74 14.89L12.94 14.82C13.51 14.59 13.92 14.18 14.11 13.62C14.17 13.43 14.17 13.4 14.18 11.54C14.19 9.84 14.19 9.64 14.15 9.56C14.08 9.44 13.96 9.37 13.81 9.37C13.71 9.37 13.67 9.39 13.58 9.47L13.47 9.57L13.46 11.43C13.44 13.27 13.44 13.28 13.37 13.45C13.25 13.75 13.03 13.97 12.73 14.09L12.56 14.16L7.19 14.17C3.64 14.17 1.76 14.17 1.65 14.14C1.3 14.08 0.99 13.84 0.84 13.52L0.76 13.34L0.76 8.18L0.76 3.03L0.84 2.84C0.95 2.61 1.2 2.37 1.44 2.27L1.61 2.21L3.45 2.19C5.51 2.17 5.4 2.19 5.5 1.97C5.57 1.83 5.54 1.69 5.41 1.56L5.31 1.46L3.43 1.46C1.87 1.46 1.52 1.47 1.39 1.51Z" fill="#000000" fill-opacity="1.000000" fill-rule="nonzero"/>
</svg>
